<mxfile host="app.diagrams.net" modified="2023-08-10T20:23:28.988Z" agent="Mozilla/5.0 (Windows NT 10.0; Win64; x64; rv:109.0) Gecko/20100101 Firefox/118.0" version="21.6.8" etag="F813tNvlV-6DV604dL5D" type="github">
  <diagram name="Page-1" id="UqwaRUj96xwjFi1s8qu9">
    <mxGraphModel>
      <root>
        <mxCell id="0" />
        <mxCell id="1" parent="0" />
      </root>
    </mxGraphModel>
  </diagram>
</mxfile>
